<svg width="40" height="40" viewBox="0 0 40 40" fill="none" xmlns="http://www.w3.org/2000/svg">
<g clip-path="url(#clip0_40_426)">
<path d="M18.8333 14.75C18.8333 13.6864 18.3943 12.6663 17.6129 11.9142C16.8315 11.1621 15.7717 10.7396 14.6667 10.7396C13.5616 10.7396 12.5018 11.1621 11.7204 11.9142C10.939 12.6663 10.5 13.6864 10.5 14.75C10.5 15.8136 10.939 16.8337 11.7204 17.5858C12.5018 18.3379 13.5616 18.7604 14.6667 18.7604C15.7717 18.7604 16.8315 18.3379 17.6129 17.5858C18.3943 16.8337 18.8333 15.8136 18.8333 14.75ZM8 14.75C8 13.0482 8.70238 11.4161 9.95262 10.2127C11.2029 9.00935 12.8986 8.33331 14.6667 8.33331C16.4348 8.33331 18.1305 9.00935 19.3807 10.2127C20.631 11.4161 21.3333 13.0482 21.3333 14.75C21.3333 16.4518 20.631 18.0839 19.3807 19.2872C18.1305 20.4906 16.4348 21.1666 14.6667 21.1666C12.8986 21.1666 11.2029 20.4906 9.95262 19.2872C8.70238 18.0839 8 16.4518 8 14.75ZM5.56771 31.5937H23.7656C23.3021 28.4205 20.4688 25.9791 17.0469 25.9791H12.2865C8.86458 25.9791 6.03125 28.4205 5.56771 31.5937ZM3 32.5111C3 27.5733 7.15625 23.5729 12.2865 23.5729H17.0469C22.1771 23.5729 26.3333 27.5733 26.3333 32.5111C26.3333 33.3332 25.6406 34 24.7865 34H4.54688C3.69271 34 3 33.3332 3 32.5111Z" fill="white"/>
</g>
<g clip-path="url(#clip1_40_426)">
<path d="M32.75 10.375C32.75 9.6498 32.4427 8.9543 31.8957 8.4415C31.3488 7.92871 30.6069 7.64062 29.8334 7.64062C29.0598 7.64062 28.3179 7.92871 27.771 8.4415C27.224 8.9543 26.9167 9.6498 26.9167 10.375C26.9167 11.1002 27.224 11.7957 27.771 12.3085C28.3179 12.8213 29.0598 13.1094 29.8334 13.1094C30.6069 13.1094 31.3488 12.8213 31.8957 12.3085C32.4427 11.7957 32.75 11.1002 32.75 10.375ZM25.1667 10.375C25.1667 9.21468 25.6584 8.10188 26.5335 7.28141C27.4087 6.46094 28.5957 6 29.8334 6C31.071 6 32.258 6.46094 33.1332 7.28141C34.0084 8.10188 34.5 9.21468 34.5 10.375C34.5 11.5353 34.0084 12.6481 33.1332 13.4686C32.258 14.2891 31.071 14.75 29.8334 14.75C28.5957 14.75 27.4087 14.2891 26.5335 13.4686C25.6584 12.6481 25.1667 11.5353 25.1667 10.375ZM23.4641 21.8594H36.2026C35.8781 19.6958 33.8948 18.0312 31.4995 18.0312H28.1672C25.7719 18.0312 23.7886 19.6958 23.4641 21.8594ZM21.6667 22.4849C21.6667 19.1182 24.5761 16.3906 28.1672 16.3906H31.4995C35.0906 16.3906 38 19.1182 38 22.4849C38 23.0454 37.5151 23.5 36.9172 23.5H22.7495C22.1516 23.5 21.6667 23.0454 21.6667 22.4849Z" fill="white"/>
</g>
<defs>
<clipPath id="clip0_40_426">
<rect width="23.3333" height="25.6667" fill="white" transform="translate(3 8.33331)"/>
</clipPath>
<clipPath id="clip1_40_426">
<rect width="16.3333" height="17.5" fill="white" transform="translate(21.6667 6)"/>
</clipPath>
</defs>
</svg>
