<svg width="15" height="15" viewBox="0 0 15 15" fill="none" xmlns="http://www.w3.org/2000/svg">
<path d="M8.83295 3.38265L8.83313 3.38181C9.00837 2.52129 8.43756 1.69825 7.58273 1.53035C6.72949 1.36277 5.88706 1.90581 5.71241 2.76223C5.71239 2.76237 5.71236 2.76251 5.71233 2.76264L5.66023 3.01625L5.66023 3.01625L5.65994 3.01766C5.53378 3.6409 5.18747 4.20231 4.67747 4.60299L4.50993 4.73417L4.50993 4.73416L4.50782 4.73583C3.87496 5.23687 3.5 5.99371 3.5 6.8018V7.35756V8.42889V9.28372C3.5 10.1707 3.95019 10.9966 4.69633 11.4852C4.69641 11.4853 4.6965 11.4853 4.69658 11.4854L5.57133 12.0588L5.57219 12.0594C6.01289 12.347 6.52836 12.5 7.05682 12.5H9.27273C10.1191 12.5 10.8247 11.8417 10.8621 10.9991C11.2984 10.7211 11.5909 10.2356 11.5909 9.67878C11.5909 9.58577 11.5828 9.49453 11.5671 9.40575C12.0154 9.13004 12.3182 8.6386 12.3182 8.07178C12.3182 7.79386 12.2448 7.53334 12.1175 7.3077C12.355 7.03399 12.5 6.67767 12.5 6.28622C12.5 5.41012 11.7789 4.71489 10.9091 4.71489H8.44952C8.59432 4.3688 8.7057 4.00779 8.78083 3.63635C8.78089 3.63607 8.78094 3.6358 8.781 3.63553L8.83295 3.38265Z" fill="white" stroke="#59D4FA"/>
</svg>
